<svg width="401" height="221" viewBox="0 0 401 221" fill="none" xmlns="http://www.w3.org/2000/svg">
<g filter="url(#filter0_dddd_108_133)">
<path d="M58.9062 186.625L69.25 166.188H79V200H69.25V179.5L58.9062 200H49.125V166.188H58.9062V186.625ZM116.882 179.625V187.156H99.8512V179.625H116.882ZM103.257 166.188V200H93.5075V166.188H103.257ZM123.32 166.188V200H113.507V166.188H123.32ZM150.39 187.719L136.046 166.188H148.202L155.015 178.656H161.39L160.265 187.719H150.39ZM155.109 185.969L147.89 200H136.171L146.89 181.594L155.109 185.969ZM167.921 166.188V200H158.171V166.188H167.921ZM190.14 166.188L175.796 187.719H165.921L164.827 178.656H171.202L177.984 166.188H190.14ZM178.265 200L171.077 185.969L179.609 181.594L190.265 200H178.265ZM218.585 200.625C215.897 200.625 213.491 200.198 211.366 199.344C209.241 198.49 207.439 197.312 205.96 195.812C204.502 194.292 203.387 192.542 202.616 190.562C201.845 188.583 201.46 186.469 201.46 184.219V183.031C201.46 180.51 201.814 178.188 202.522 176.062C203.231 173.938 204.262 172.094 205.616 170.531C206.991 168.948 208.679 167.729 210.679 166.875C212.679 166 214.96 165.562 217.522 165.562C219.918 165.562 222.054 165.958 223.929 166.75C225.804 167.521 227.387 168.635 228.679 170.094C229.97 171.531 230.95 173.271 231.616 175.312C232.304 177.333 232.647 179.604 232.647 182.125V186.125H205.397V179.844H223.085V179.094C223.085 177.906 222.866 176.865 222.429 175.969C222.012 175.073 221.387 174.385 220.554 173.906C219.741 173.406 218.71 173.156 217.46 173.156C216.272 173.156 215.283 173.406 214.491 173.906C213.7 174.406 213.064 175.115 212.585 176.031C212.127 176.927 211.793 177.979 211.585 179.188C211.377 180.375 211.272 181.656 211.272 183.031V184.219C211.272 185.531 211.45 186.729 211.804 187.812C212.158 188.896 212.679 189.823 213.366 190.594C214.054 191.365 214.887 191.969 215.866 192.406C216.845 192.844 217.96 193.062 219.21 193.062C220.752 193.062 222.22 192.771 223.616 192.188C225.012 191.583 226.22 190.646 227.241 189.375L231.804 194.594C231.116 195.594 230.147 196.562 228.897 197.5C227.668 198.417 226.189 199.167 224.46 199.75C222.731 200.333 220.772 200.625 218.585 200.625ZM268.967 179.625V187.156H251.936V179.625H268.967ZM255.342 166.188V200H245.592V166.188H255.342ZM275.405 166.188V200H265.592V166.188H275.405ZM306.038 200.625C303.35 200.625 300.944 200.198 298.819 199.344C296.694 198.49 294.892 197.312 293.413 195.812C291.954 194.292 290.84 192.542 290.069 190.562C289.298 188.583 288.913 186.469 288.913 184.219V183.031C288.913 180.51 289.267 178.188 289.975 176.062C290.683 173.938 291.715 172.094 293.069 170.531C294.444 168.948 296.131 167.729 298.131 166.875C300.131 166 302.413 165.562 304.975 165.562C307.371 165.562 309.506 165.958 311.381 166.75C313.256 167.521 314.84 168.635 316.131 170.094C317.423 171.531 318.402 173.271 319.069 175.312C319.756 177.333 320.1 179.604 320.1 182.125V186.125H292.85V179.844H310.538V179.094C310.538 177.906 310.319 176.865 309.881 175.969C309.465 175.073 308.84 174.385 308.006 173.906C307.194 173.406 306.163 173.156 304.913 173.156C303.725 173.156 302.735 173.406 301.944 173.906C301.152 174.406 300.517 175.115 300.038 176.031C299.579 176.927 299.246 177.979 299.038 179.188C298.829 180.375 298.725 181.656 298.725 183.031V184.219C298.725 185.531 298.902 186.729 299.256 187.812C299.61 188.896 300.131 189.823 300.819 190.594C301.506 191.365 302.34 191.969 303.319 192.406C304.298 192.844 305.413 193.062 306.663 193.062C308.204 193.062 309.673 192.771 311.069 192.188C312.465 191.583 313.673 190.646 314.694 189.375L319.256 194.594C318.569 195.594 317.6 196.562 316.35 197.5C315.121 198.417 313.642 199.167 311.913 199.75C310.183 200.333 308.225 200.625 306.038 200.625ZM342.951 172.688V213H333.201V166.188H342.295L342.951 172.688ZM364.045 182.719V183.375C364.045 185.833 363.764 188.115 363.201 190.219C362.639 192.302 361.795 194.125 360.67 195.688C359.566 197.25 358.201 198.469 356.576 199.344C354.951 200.198 353.066 200.625 350.92 200.625C348.878 200.625 347.107 200.198 345.607 199.344C344.128 198.469 342.878 197.26 341.857 195.719C340.857 194.156 340.045 192.375 339.42 190.375C338.816 188.354 338.347 186.198 338.014 183.906V182.625C338.347 180.188 338.826 177.927 339.451 175.844C340.076 173.76 340.889 171.958 341.889 170.438C342.889 168.896 344.128 167.698 345.607 166.844C347.087 165.99 348.847 165.562 350.889 165.562C353.014 165.562 354.899 165.969 356.545 166.781C358.191 167.594 359.566 168.76 360.67 170.281C361.795 171.781 362.639 173.583 363.201 175.688C363.764 177.792 364.045 180.135 364.045 182.719ZM354.264 183.375V182.719C354.264 181.344 354.16 180.083 353.951 178.938C353.743 177.771 353.41 176.76 352.951 175.906C352.493 175.031 351.889 174.354 351.139 173.875C350.389 173.396 349.472 173.156 348.389 173.156C347.222 173.156 346.232 173.344 345.42 173.719C344.607 174.094 343.951 174.646 343.451 175.375C342.951 176.083 342.587 176.958 342.357 178C342.149 179.042 342.035 180.229 342.014 181.562V185C342.035 186.562 342.253 187.958 342.67 189.188C343.107 190.396 343.785 191.344 344.701 192.031C345.639 192.698 346.889 193.031 348.451 193.031C349.555 193.031 350.472 192.792 351.201 192.312C351.951 191.812 352.545 191.115 352.982 190.219C353.441 189.323 353.764 188.292 353.951 187.125C354.16 185.958 354.264 184.708 354.264 183.375Z" fill="#E2E2E2"/>
</g>
<g clip-path="url(#clip0_108_133)">
<g filter="url(#filter1_dddd_108_133)">
<rect x="174.391" y="-3.39374" width="23.537" height="178.041" transform="rotate(-20.6486 174.391 -3.39374)" fill="#E2E2E2"/>
</g>
<g filter="url(#filter2_dddd_108_133)">
<path d="M17.9062 1.75V70H2.625V1.75H17.9062ZM44.7656 30.5312V42.3438H13.6406V30.5312H44.7656ZM47.7656 1.75V13.6094H13.6406V1.75H47.7656ZM55.2188 1.75H81.4219C86.6406 1.75 91.1562 2.53125 94.9688 4.09375C98.8125 5.65625 101.766 7.96875 103.828 11.0312C105.891 14.0938 106.922 17.875 106.922 22.375C106.922 26.125 106.312 29.3125 105.094 31.9375C103.875 34.5625 102.156 36.7344 99.9375 38.4531C97.75 40.1719 95.1875 41.5625 92.25 42.625L87.2812 45.3438H64.9688L64.875 33.4844H81.4688C83.75 33.4844 85.6406 33.0781 87.1406 32.2656C88.6406 31.4531 89.7656 30.3125 90.5156 28.8438C91.2969 27.3438 91.6875 25.5938 91.6875 23.5938C91.6875 21.5312 91.2969 19.75 90.5156 18.25C89.7344 16.75 88.5781 15.6094 87.0469 14.8281C85.5469 14.0156 83.6719 13.6094 81.4219 13.6094H70.5V70H55.2188V1.75ZM93 70L77.6719 39.6719L93.7969 39.625L109.359 69.2969V70H93ZM174.188 34.375V37.4219C174.188 42.6094 173.469 47.2656 172.031 51.3906C170.625 55.5156 168.609 59.0312 165.984 61.9375C163.391 64.8438 160.297 67.0781 156.703 68.6406C153.141 70.1719 149.188 70.9375 144.844 70.9375C140.5 70.9375 136.531 70.1719 132.938 68.6406C129.344 67.0781 126.219 64.8438 123.562 61.9375C120.938 59.0312 118.906 55.5156 117.469 51.3906C116.031 47.2656 115.312 42.6094 115.312 37.4219V34.375C115.312 29.1875 116.031 24.5312 117.469 20.4062C118.906 16.25 120.922 12.7188 123.516 9.8125C126.141 6.90625 129.25 4.6875 132.844 3.15625C136.438 1.59375 140.406 0.8125 144.75 0.8125C149.094 0.8125 153.062 1.59375 156.656 3.15625C160.25 4.6875 163.344 6.90625 165.938 9.8125C168.562 12.7188 170.594 16.25 172.031 20.4062C173.469 24.5312 174.188 29.1875 174.188 34.375ZM158.766 37.4219V34.2812C158.766 30.8125 158.453 27.75 157.828 25.0938C157.203 22.4062 156.297 20.1562 155.109 18.3438C153.922 16.5312 152.453 15.1719 150.703 14.2656C148.953 13.3281 146.969 12.8594 144.75 12.8594C142.438 12.8594 140.422 13.3281 138.703 14.2656C136.984 15.1719 135.531 16.5312 134.344 18.3438C133.188 20.1562 132.297 22.4062 131.672 25.0938C131.078 27.75 130.781 30.8125 130.781 34.2812V37.4219C130.781 40.8594 131.078 43.9219 131.672 46.6094C132.297 49.2656 133.203 51.5156 134.391 53.3594C135.578 55.2031 137.031 56.5938 138.75 57.5312C140.5 58.4688 142.531 58.9375 144.844 58.9375C147.062 58.9375 149.031 58.4688 150.75 57.5312C152.5 56.5938 153.969 55.2031 155.156 53.3594C156.344 51.5156 157.234 49.2656 157.828 46.6094C158.453 43.9219 158.766 40.8594 158.766 37.4219Z" fill="#E2E2E2"/>
</g>
<g filter="url(#filter3_dddd_108_133)">
<path d="M261.406 1.75V70H246.172V1.75H261.406ZM282.172 1.75V13.6094H225.828V1.75H282.172Z" fill="#E2E2E2"/>
</g>
<g filter="url(#filter4_dddd_108_133)">
<path d="M193.031 134.188V146H156.703V134.188H193.031ZM161.906 77.75V146H146.625V77.75H161.906ZM188.344 105.219V116.656H156.703V105.219H188.344ZM193.078 77.75V89.6094H156.703V77.75H193.078Z" fill="#E2E2E2"/>
</g>
<g filter="url(#filter5_dddd_108_133)">
<path d="M291.234 146H276.234L276.328 134.188H291.234C294.641 134.188 297.516 133.406 299.859 131.844C302.203 130.25 303.984 127.906 305.203 124.812C306.422 121.688 307.031 117.891 307.031 113.422V110.281C307.031 106.906 306.688 103.938 306 101.375C305.312 98.7812 304.297 96.6094 302.953 94.8594C301.609 93.1094 299.938 91.7969 297.938 90.9219C295.969 90.0469 293.703 89.6094 291.141 89.6094H275.953V77.75H291.141C295.766 77.75 299.984 78.5312 303.797 80.0938C307.641 81.6562 310.953 83.8906 313.734 86.7969C316.547 89.7031 318.719 93.1406 320.25 97.1094C321.781 101.078 322.547 105.5 322.547 110.375V113.422C322.547 118.266 321.781 122.688 320.25 126.688C318.719 130.656 316.547 134.094 313.734 137C310.953 139.875 307.656 142.094 303.844 143.656C300.031 145.219 295.828 146 291.234 146ZM284.906 77.75V146H269.625V77.75H284.906Z" fill="#E2E2E2"/>
</g>
</g>
<defs>
<filter id="filter0_dddd_108_133" x="45.125" y="165.562" width="322.92" height="55.4375" filterUnits="userSpaceOnUse" color-interpolation-filters="sRGB">
<feFlood flood-opacity="0" result="BackgroundImageFix"/>
<feColorMatrix in="SourceAlpha" type="matrix" values="0 0 0 0 0 0 0 0 0 0 0 0 0 0 0 0 0 0 127 0" result="hardAlpha"/>
<feOffset dy="4"/>
<feGaussianBlur stdDeviation="2"/>
<feComposite in2="hardAlpha" operator="out"/>
<feColorMatrix type="matrix" values="0 0 0 0 0 0 0 0 0 0 0 0 0 0 0 0 0 0 0.25 0"/>
<feBlend mode="normal" in2="BackgroundImageFix" result="effect1_dropShadow_108_133"/>
<feColorMatrix in="SourceAlpha" type="matrix" values="0 0 0 0 0 0 0 0 0 0 0 0 0 0 0 0 0 0 127 0" result="hardAlpha"/>
<feOffset dy="4"/>
<feGaussianBlur stdDeviation="2"/>
<feComposite in2="hardAlpha" operator="out"/>
<feColorMatrix type="matrix" values="0 0 0 0 0 0 0 0 0 0 0 0 0 0 0 0 0 0 0.25 0"/>
<feBlend mode="normal" in2="effect1_dropShadow_108_133" result="effect2_dropShadow_108_133"/>
<feColorMatrix in="SourceAlpha" type="matrix" values="0 0 0 0 0 0 0 0 0 0 0 0 0 0 0 0 0 0 127 0" result="hardAlpha"/>
<feOffset dy="4"/>
<feGaussianBlur stdDeviation="2"/>
<feComposite in2="hardAlpha" operator="out"/>
<feColorMatrix type="matrix" values="0 0 0 0 0 0 0 0 0 0 0 0 0 0 0 0 0 0 0.25 0"/>
<feBlend mode="normal" in2="effect2_dropShadow_108_133" result="effect3_dropShadow_108_133"/>
<feColorMatrix in="SourceAlpha" type="matrix" values="0 0 0 0 0 0 0 0 0 0 0 0 0 0 0 0 0 0 127 0" result="hardAlpha"/>
<feOffset dy="4"/>
<feGaussianBlur stdDeviation="2"/>
<feComposite in2="hardAlpha" operator="out"/>
<feColorMatrix type="matrix" values="0 0 0 0 0 0 0 0 0 0 0 0 0 0 0 0 0 0 0.25 0"/>
<feBlend mode="normal" in2="effect3_dropShadow_108_133" result="effect4_dropShadow_108_133"/>
<feBlend mode="normal" in="SourceGraphic" in2="effect4_dropShadow_108_133" result="shape"/>
</filter>
<filter id="filter1_dddd_108_133" x="170.391" y="-11.6937" width="92.8085" height="182.904" filterUnits="userSpaceOnUse" color-interpolation-filters="sRGB">
<feFlood flood-opacity="0" result="BackgroundImageFix"/>
<feColorMatrix in="SourceAlpha" type="matrix" values="0 0 0 0 0 0 0 0 0 0 0 0 0 0 0 0 0 0 127 0" result="hardAlpha"/>
<feOffset dy="4"/>
<feGaussianBlur stdDeviation="2"/>
<feComposite in2="hardAlpha" operator="out"/>
<feColorMatrix type="matrix" values="0 0 0 0 0 0 0 0 0 0 0 0 0 0 0 0 0 0 0.25 0"/>
<feBlend mode="normal" in2="BackgroundImageFix" result="effect1_dropShadow_108_133"/>
<feColorMatrix in="SourceAlpha" type="matrix" values="0 0 0 0 0 0 0 0 0 0 0 0 0 0 0 0 0 0 127 0" result="hardAlpha"/>
<feOffset dy="4"/>
<feGaussianBlur stdDeviation="2"/>
<feComposite in2="hardAlpha" operator="out"/>
<feColorMatrix type="matrix" values="0 0 0 0 0 0 0 0 0 0 0 0 0 0 0 0 0 0 0.25 0"/>
<feBlend mode="normal" in2="effect1_dropShadow_108_133" result="effect2_dropShadow_108_133"/>
<feColorMatrix in="SourceAlpha" type="matrix" values="0 0 0 0 0 0 0 0 0 0 0 0 0 0 0 0 0 0 127 0" result="hardAlpha"/>
<feOffset dy="4"/>
<feGaussianBlur stdDeviation="2"/>
<feComposite in2="hardAlpha" operator="out"/>
<feColorMatrix type="matrix" values="0 0 0 0 0 0 0 0 0 0 0 0 0 0 0 0 0 0 0.25 0"/>
<feBlend mode="normal" in2="effect2_dropShadow_108_133" result="effect3_dropShadow_108_133"/>
<feColorMatrix in="SourceAlpha" type="matrix" values="0 0 0 0 0 0 0 0 0 0 0 0 0 0 0 0 0 0 127 0" result="hardAlpha"/>
<feOffset dy="4"/>
<feGaussianBlur stdDeviation="2"/>
<feComposite in2="hardAlpha" operator="out"/>
<feColorMatrix type="matrix" values="0 0 0 0 0 0 0 0 0 0 0 0 0 0 0 0 0 0 0.25 0"/>
<feBlend mode="normal" in2="effect3_dropShadow_108_133" result="effect4_dropShadow_108_133"/>
<feBlend mode="normal" in="SourceGraphic" in2="effect4_dropShadow_108_133" result="shape"/>
</filter>
<filter id="filter2_dddd_108_133" x="-1.375" y="0.8125" width="179.562" height="78.125" filterUnits="userSpaceOnUse" color-interpolation-filters="sRGB">
<feFlood flood-opacity="0" result="BackgroundImageFix"/>
<feColorMatrix in="SourceAlpha" type="matrix" values="0 0 0 0 0 0 0 0 0 0 0 0 0 0 0 0 0 0 127 0" result="hardAlpha"/>
<feOffset dy="4"/>
<feGaussianBlur stdDeviation="2"/>
<feComposite in2="hardAlpha" operator="out"/>
<feColorMatrix type="matrix" values="0 0 0 0 0 0 0 0 0 0 0 0 0 0 0 0 0 0 0.25 0"/>
<feBlend mode="normal" in2="BackgroundImageFix" result="effect1_dropShadow_108_133"/>
<feColorMatrix in="SourceAlpha" type="matrix" values="0 0 0 0 0 0 0 0 0 0 0 0 0 0 0 0 0 0 127 0" result="hardAlpha"/>
<feOffset dy="4"/>
<feGaussianBlur stdDeviation="2"/>
<feComposite in2="hardAlpha" operator="out"/>
<feColorMatrix type="matrix" values="0 0 0 0 0 0 0 0 0 0 0 0 0 0 0 0 0 0 0.25 0"/>
<feBlend mode="normal" in2="effect1_dropShadow_108_133" result="effect2_dropShadow_108_133"/>
<feColorMatrix in="SourceAlpha" type="matrix" values="0 0 0 0 0 0 0 0 0 0 0 0 0 0 0 0 0 0 127 0" result="hardAlpha"/>
<feOffset dy="4"/>
<feGaussianBlur stdDeviation="2"/>
<feComposite in2="hardAlpha" operator="out"/>
<feColorMatrix type="matrix" values="0 0 0 0 0 0 0 0 0 0 0 0 0 0 0 0 0 0 0.25 0"/>
<feBlend mode="normal" in2="effect2_dropShadow_108_133" result="effect3_dropShadow_108_133"/>
<feColorMatrix in="SourceAlpha" type="matrix" values="0 0 0 0 0 0 0 0 0 0 0 0 0 0 0 0 0 0 127 0" result="hardAlpha"/>
<feOffset dy="4"/>
<feGaussianBlur stdDeviation="2"/>
<feComposite in2="hardAlpha" operator="out"/>
<feColorMatrix type="matrix" values="0 0 0 0 0 0 0 0 0 0 0 0 0 0 0 0 0 0 0.25 0"/>
<feBlend mode="normal" in2="effect3_dropShadow_108_133" result="effect4_dropShadow_108_133"/>
<feBlend mode="normal" in="SourceGraphic" in2="effect4_dropShadow_108_133" result="shape"/>
</filter>
<filter id="filter3_dddd_108_133" x="221.828" y="1.75" width="64.3438" height="76.25" filterUnits="userSpaceOnUse" color-interpolation-filters="sRGB">
<feFlood flood-opacity="0" result="BackgroundImageFix"/>
<feColorMatrix in="SourceAlpha" type="matrix" values="0 0 0 0 0 0 0 0 0 0 0 0 0 0 0 0 0 0 127 0" result="hardAlpha"/>
<feOffset dy="4"/>
<feGaussianBlur stdDeviation="2"/>
<feComposite in2="hardAlpha" operator="out"/>
<feColorMatrix type="matrix" values="0 0 0 0 0 0 0 0 0 0 0 0 0 0 0 0 0 0 0.25 0"/>
<feBlend mode="normal" in2="BackgroundImageFix" result="effect1_dropShadow_108_133"/>
<feColorMatrix in="SourceAlpha" type="matrix" values="0 0 0 0 0 0 0 0 0 0 0 0 0 0 0 0 0 0 127 0" result="hardAlpha"/>
<feOffset dy="4"/>
<feGaussianBlur stdDeviation="2"/>
<feComposite in2="hardAlpha" operator="out"/>
<feColorMatrix type="matrix" values="0 0 0 0 0 0 0 0 0 0 0 0 0 0 0 0 0 0 0.25 0"/>
<feBlend mode="normal" in2="effect1_dropShadow_108_133" result="effect2_dropShadow_108_133"/>
<feColorMatrix in="SourceAlpha" type="matrix" values="0 0 0 0 0 0 0 0 0 0 0 0 0 0 0 0 0 0 127 0" result="hardAlpha"/>
<feOffset dy="4"/>
<feGaussianBlur stdDeviation="2"/>
<feComposite in2="hardAlpha" operator="out"/>
<feColorMatrix type="matrix" values="0 0 0 0 0 0 0 0 0 0 0 0 0 0 0 0 0 0 0.25 0"/>
<feBlend mode="normal" in2="effect2_dropShadow_108_133" result="effect3_dropShadow_108_133"/>
<feColorMatrix in="SourceAlpha" type="matrix" values="0 0 0 0 0 0 0 0 0 0 0 0 0 0 0 0 0 0 127 0" result="hardAlpha"/>
<feOffset dy="4"/>
<feGaussianBlur stdDeviation="2"/>
<feComposite in2="hardAlpha" operator="out"/>
<feColorMatrix type="matrix" values="0 0 0 0 0 0 0 0 0 0 0 0 0 0 0 0 0 0 0.25 0"/>
<feBlend mode="normal" in2="effect3_dropShadow_108_133" result="effect4_dropShadow_108_133"/>
<feBlend mode="normal" in="SourceGraphic" in2="effect4_dropShadow_108_133" result="shape"/>
</filter>
<filter id="filter4_dddd_108_133" x="142.625" y="77.75" width="54.4531" height="76.25" filterUnits="userSpaceOnUse" color-interpolation-filters="sRGB">
<feFlood flood-opacity="0" result="BackgroundImageFix"/>
<feColorMatrix in="SourceAlpha" type="matrix" values="0 0 0 0 0 0 0 0 0 0 0 0 0 0 0 0 0 0 127 0" result="hardAlpha"/>
<feOffset dy="4"/>
<feGaussianBlur stdDeviation="2"/>
<feComposite in2="hardAlpha" operator="out"/>
<feColorMatrix type="matrix" values="0 0 0 0 0 0 0 0 0 0 0 0 0 0 0 0 0 0 0.25 0"/>
<feBlend mode="normal" in2="BackgroundImageFix" result="effect1_dropShadow_108_133"/>
<feColorMatrix in="SourceAlpha" type="matrix" values="0 0 0 0 0 0 0 0 0 0 0 0 0 0 0 0 0 0 127 0" result="hardAlpha"/>
<feOffset dy="4"/>
<feGaussianBlur stdDeviation="2"/>
<feComposite in2="hardAlpha" operator="out"/>
<feColorMatrix type="matrix" values="0 0 0 0 0 0 0 0 0 0 0 0 0 0 0 0 0 0 0.25 0"/>
<feBlend mode="normal" in2="effect1_dropShadow_108_133" result="effect2_dropShadow_108_133"/>
<feColorMatrix in="SourceAlpha" type="matrix" values="0 0 0 0 0 0 0 0 0 0 0 0 0 0 0 0 0 0 127 0" result="hardAlpha"/>
<feOffset dy="4"/>
<feGaussianBlur stdDeviation="2"/>
<feComposite in2="hardAlpha" operator="out"/>
<feColorMatrix type="matrix" values="0 0 0 0 0 0 0 0 0 0 0 0 0 0 0 0 0 0 0.25 0"/>
<feBlend mode="normal" in2="effect2_dropShadow_108_133" result="effect3_dropShadow_108_133"/>
<feColorMatrix in="SourceAlpha" type="matrix" values="0 0 0 0 0 0 0 0 0 0 0 0 0 0 0 0 0 0 127 0" result="hardAlpha"/>
<feOffset dy="4"/>
<feGaussianBlur stdDeviation="2"/>
<feComposite in2="hardAlpha" operator="out"/>
<feColorMatrix type="matrix" values="0 0 0 0 0 0 0 0 0 0 0 0 0 0 0 0 0 0 0.25 0"/>
<feBlend mode="normal" in2="effect3_dropShadow_108_133" result="effect4_dropShadow_108_133"/>
<feBlend mode="normal" in="SourceGraphic" in2="effect4_dropShadow_108_133" result="shape"/>
</filter>
<filter id="filter5_dddd_108_133" x="265.625" y="77.75" width="60.9219" height="76.25" filterUnits="userSpaceOnUse" color-interpolation-filters="sRGB">
<feFlood flood-opacity="0" result="BackgroundImageFix"/>
<feColorMatrix in="SourceAlpha" type="matrix" values="0 0 0 0 0 0 0 0 0 0 0 0 0 0 0 0 0 0 127 0" result="hardAlpha"/>
<feOffset dy="4"/>
<feGaussianBlur stdDeviation="2"/>
<feComposite in2="hardAlpha" operator="out"/>
<feColorMatrix type="matrix" values="0 0 0 0 0 0 0 0 0 0 0 0 0 0 0 0 0 0 0.25 0"/>
<feBlend mode="normal" in2="BackgroundImageFix" result="effect1_dropShadow_108_133"/>
<feColorMatrix in="SourceAlpha" type="matrix" values="0 0 0 0 0 0 0 0 0 0 0 0 0 0 0 0 0 0 127 0" result="hardAlpha"/>
<feOffset dy="4"/>
<feGaussianBlur stdDeviation="2"/>
<feComposite in2="hardAlpha" operator="out"/>
<feColorMatrix type="matrix" values="0 0 0 0 0 0 0 0 0 0 0 0 0 0 0 0 0 0 0.25 0"/>
<feBlend mode="normal" in2="effect1_dropShadow_108_133" result="effect2_dropShadow_108_133"/>
<feColorMatrix in="SourceAlpha" type="matrix" values="0 0 0 0 0 0 0 0 0 0 0 0 0 0 0 0 0 0 127 0" result="hardAlpha"/>
<feOffset dy="4"/>
<feGaussianBlur stdDeviation="2"/>
<feComposite in2="hardAlpha" operator="out"/>
<feColorMatrix type="matrix" values="0 0 0 0 0 0 0 0 0 0 0 0 0 0 0 0 0 0 0.25 0"/>
<feBlend mode="normal" in2="effect2_dropShadow_108_133" result="effect3_dropShadow_108_133"/>
<feColorMatrix in="SourceAlpha" type="matrix" values="0 0 0 0 0 0 0 0 0 0 0 0 0 0 0 0 0 0 127 0" result="hardAlpha"/>
<feOffset dy="4"/>
<feGaussianBlur stdDeviation="2"/>
<feComposite in2="hardAlpha" operator="out"/>
<feColorMatrix type="matrix" values="0 0 0 0 0 0 0 0 0 0 0 0 0 0 0 0 0 0 0.25 0"/>
<feBlend mode="normal" in2="effect3_dropShadow_108_133" result="effect4_dropShadow_108_133"/>
<feBlend mode="normal" in="SourceGraphic" in2="effect4_dropShadow_108_133" result="shape"/>
</filter>
<clipPath id="clip0_108_133">
<rect width="350" height="152" fill="white"/>
</clipPath>
</defs>
</svg>
