<svg width="377" height="221" viewBox="0 0 377 221" fill="none" xmlns="http://www.w3.org/2000/svg">
<g filter="url(#filter0_dddd_103_132)">
<path d="M44.9375 192.438V152H54.75V200H45.9375L44.9375 192.438ZM23.875 183.5V182.844C23.875 180.281 24.1562 177.948 24.7188 175.844C25.3021 173.719 26.1458 171.896 27.25 170.375C28.375 168.833 29.7604 167.646 31.4062 166.812C33.0521 165.979 34.9375 165.562 37.0625 165.562C39.0208 165.562 40.7292 166 42.1875 166.875C43.6458 167.729 44.8854 168.938 45.9062 170.5C46.9479 172.042 47.7917 173.865 48.4375 175.969C49.0833 178.052 49.5729 180.312 49.9062 182.75V183.875C49.5938 186.208 49.1042 188.385 48.4375 190.406C47.7917 192.427 46.9479 194.208 45.9062 195.75C44.8854 197.271 43.6354 198.469 42.1562 199.344C40.6979 200.198 38.9792 200.625 37 200.625C34.875 200.625 32.9896 200.198 31.3438 199.344C29.7188 198.49 28.3542 197.292 27.25 195.75C26.1458 194.208 25.3021 192.396 24.7188 190.312C24.1562 188.229 23.875 185.958 23.875 183.5ZM33.625 182.844V183.5C33.625 184.833 33.7188 186.073 33.9062 187.219C34.1146 188.365 34.4479 189.375 34.9062 190.25C35.3646 191.125 35.9688 191.812 36.7188 192.312C37.4688 192.792 38.3854 193.031 39.4688 193.031C40.9271 193.031 42.125 192.698 43.0625 192.031C44 191.344 44.7083 190.396 45.1875 189.188C45.6667 187.979 45.9167 186.573 45.9375 184.969V181.688C45.9375 180.354 45.8021 179.156 45.5312 178.094C45.2604 177.031 44.8542 176.135 44.3125 175.406C43.7917 174.677 43.1354 174.125 42.3438 173.75C41.5521 173.354 40.6146 173.156 39.5312 173.156C38.4688 173.156 37.5625 173.406 36.8125 173.906C36.0625 174.385 35.4479 175.062 34.9688 175.938C34.5104 176.812 34.1667 177.844 33.9375 179.031C33.7292 180.198 33.625 181.469 33.625 182.844ZM81.6675 200.625C78.98 200.625 76.5737 200.198 74.4487 199.344C72.3237 198.49 70.5217 197.312 69.0425 195.812C67.5842 194.292 66.4696 192.542 65.6987 190.562C64.9279 188.583 64.5425 186.469 64.5425 184.219V183.031C64.5425 180.51 64.8967 178.188 65.605 176.062C66.3133 173.938 67.3446 172.094 68.6987 170.531C70.0737 168.948 71.7612 167.729 73.7612 166.875C75.7612 166 78.0425 165.562 80.605 165.562C83.0008 165.562 85.1362 165.958 87.0112 166.75C88.8862 167.521 90.4696 168.635 91.7612 170.094C93.0529 171.531 94.0321 173.271 94.6987 175.312C95.3862 177.333 95.73 179.604 95.73 182.125V186.125H68.48V179.844H86.1675V179.094C86.1675 177.906 85.9487 176.865 85.5112 175.969C85.0946 175.073 84.4696 174.385 83.6362 173.906C82.8237 173.406 81.7925 173.156 80.5425 173.156C79.355 173.156 78.3654 173.406 77.5737 173.906C76.7821 174.406 76.1467 175.115 75.6675 176.031C75.2092 176.927 74.8758 177.979 74.6675 179.188C74.4592 180.375 74.355 181.656 74.355 183.031V184.219C74.355 185.531 74.5321 186.729 74.8862 187.812C75.2404 188.896 75.7612 189.823 76.4487 190.594C77.1362 191.365 77.9696 191.969 78.9487 192.406C79.9279 192.844 81.0425 193.062 82.2925 193.062C83.8342 193.062 85.3029 192.771 86.6987 192.188C88.0946 191.583 89.3029 190.646 90.3237 189.375L94.8862 194.594C94.1987 195.594 93.23 196.562 91.98 197.5C90.7508 198.417 89.2717 199.167 87.5425 199.75C85.8133 200.333 83.855 200.625 81.6675 200.625ZM116.804 193.094L123.866 166.188H134.116L122.897 200H116.741L116.804 193.094ZM112.241 166.188L119.272 193.125L119.335 200H113.179L101.96 166.188H112.241ZM158.128 200.625C155.44 200.625 153.034 200.198 150.909 199.344C148.784 198.49 146.982 197.312 145.503 195.812C144.044 194.292 142.93 192.542 142.159 190.562C141.388 188.583 141.003 186.469 141.003 184.219V183.031C141.003 180.51 141.357 178.188 142.065 176.062C142.773 173.938 143.805 172.094 145.159 170.531C146.534 168.948 148.221 167.729 150.221 166.875C152.221 166 154.503 165.562 157.065 165.562C159.461 165.562 161.596 165.958 163.471 166.75C165.346 167.521 166.93 168.635 168.221 170.094C169.513 171.531 170.492 173.271 171.159 175.312C171.846 177.333 172.19 179.604 172.19 182.125V186.125H144.94V179.844H162.628V179.094C162.628 177.906 162.409 176.865 161.971 175.969C161.555 175.073 160.93 174.385 160.096 173.906C159.284 173.406 158.253 173.156 157.003 173.156C155.815 173.156 154.825 173.406 154.034 173.906C153.242 174.406 152.607 175.115 152.128 176.031C151.669 176.927 151.336 177.979 151.128 179.188C150.919 180.375 150.815 181.656 150.815 183.031V184.219C150.815 185.531 150.992 186.729 151.346 187.812C151.7 188.896 152.221 189.823 152.909 190.594C153.596 191.365 154.43 191.969 155.409 192.406C156.388 192.844 157.503 193.062 158.753 193.062C160.294 193.062 161.763 192.771 163.159 192.188C164.555 191.583 165.763 190.646 166.784 189.375L171.346 194.594C170.659 195.594 169.69 196.562 168.44 197.5C167.211 198.417 165.732 199.167 164.003 199.75C162.273 200.333 160.315 200.625 158.128 200.625ZM191.701 152V200H181.92V152H191.701ZM201.806 183.438V182.781C201.806 180.302 202.16 178.021 202.869 175.938C203.577 173.833 204.619 172.01 205.994 170.469C207.369 168.927 209.056 167.729 211.056 166.875C213.056 166 215.348 165.562 217.931 165.562C220.556 165.562 222.869 166 224.869 166.875C226.89 167.729 228.587 168.927 229.962 170.469C231.337 172.01 232.379 173.833 233.087 175.938C233.796 178.021 234.15 180.302 234.15 182.781V183.438C234.15 185.896 233.796 188.177 233.087 190.281C232.379 192.365 231.337 194.188 229.962 195.75C228.587 197.292 226.9 198.49 224.9 199.344C222.9 200.198 220.598 200.625 217.994 200.625C215.41 200.625 213.108 200.198 211.087 199.344C209.067 198.49 207.369 197.292 205.994 195.75C204.619 194.188 203.577 192.365 202.869 190.281C202.16 188.177 201.806 185.896 201.806 183.438ZM211.587 182.781V183.438C211.587 184.771 211.692 186.021 211.9 187.188C212.129 188.354 212.494 189.375 212.994 190.25C213.494 191.125 214.15 191.812 214.962 192.312C215.796 192.792 216.806 193.031 217.994 193.031C219.181 193.031 220.181 192.792 220.994 192.312C221.806 191.812 222.462 191.125 222.962 190.25C223.462 189.375 223.817 188.354 224.025 187.188C224.254 186.021 224.369 184.771 224.369 183.438V182.781C224.369 181.469 224.254 180.24 224.025 179.094C223.817 177.927 223.462 176.896 222.962 176C222.462 175.104 221.796 174.406 220.962 173.906C220.15 173.406 219.14 173.156 217.931 173.156C216.765 173.156 215.775 173.406 214.962 173.906C214.15 174.406 213.494 175.104 212.994 176C212.494 176.896 212.129 177.927 211.9 179.094C211.692 180.24 211.587 181.469 211.587 182.781ZM253.536 172.688V213H243.786V166.188H252.88L253.536 172.688ZM274.63 182.719V183.375C274.63 185.833 274.349 188.115 273.786 190.219C273.224 192.302 272.38 194.125 271.255 195.688C270.151 197.25 268.786 198.469 267.161 199.344C265.536 200.198 263.651 200.625 261.505 200.625C259.463 200.625 257.693 200.198 256.193 199.344C254.713 198.469 253.463 197.26 252.443 195.719C251.443 194.156 250.63 192.375 250.005 190.375C249.401 188.354 248.932 186.198 248.599 183.906V182.625C248.932 180.188 249.411 177.927 250.036 175.844C250.661 173.76 251.474 171.958 252.474 170.438C253.474 168.896 254.713 167.698 256.193 166.844C257.672 165.99 259.432 165.562 261.474 165.562C263.599 165.562 265.484 165.969 267.13 166.781C268.776 167.594 270.151 168.76 271.255 170.281C272.38 171.781 273.224 173.583 273.786 175.688C274.349 177.792 274.63 180.135 274.63 182.719ZM264.849 183.375V182.719C264.849 181.344 264.745 180.083 264.536 178.938C264.328 177.771 263.995 176.76 263.536 175.906C263.078 175.031 262.474 174.354 261.724 173.875C260.974 173.396 260.057 173.156 258.974 173.156C257.807 173.156 256.818 173.344 256.005 173.719C255.193 174.094 254.536 174.646 254.036 175.375C253.536 176.083 253.172 176.958 252.943 178C252.734 179.042 252.62 180.229 252.599 181.562V185C252.62 186.562 252.838 187.958 253.255 189.188C253.693 190.396 254.37 191.344 255.286 192.031C256.224 192.698 257.474 193.031 259.036 193.031C260.14 193.031 261.057 192.792 261.786 192.312C262.536 191.812 263.13 191.115 263.568 190.219C264.026 189.323 264.349 188.292 264.536 187.125C264.745 185.958 264.849 184.708 264.849 183.375ZM300.235 200.625C297.547 200.625 295.141 200.198 293.016 199.344C290.891 198.49 289.089 197.312 287.61 195.812C286.152 194.292 285.037 192.542 284.266 190.562C283.495 188.583 283.11 186.469 283.11 184.219V183.031C283.11 180.51 283.464 178.188 284.172 176.062C284.881 173.938 285.912 172.094 287.266 170.531C288.641 168.948 290.329 167.729 292.329 166.875C294.329 166 296.61 165.562 299.172 165.562C301.568 165.562 303.704 165.958 305.579 166.75C307.454 167.521 309.037 168.635 310.329 170.094C311.62 171.531 312.6 173.271 313.266 175.312C313.954 177.333 314.297 179.604 314.297 182.125V186.125H287.047V179.844H304.735V179.094C304.735 177.906 304.516 176.865 304.079 175.969C303.662 175.073 303.037 174.385 302.204 173.906C301.391 173.406 300.36 173.156 299.11 173.156C297.922 173.156 296.933 173.406 296.141 173.906C295.35 174.406 294.714 175.115 294.235 176.031C293.777 176.927 293.443 177.979 293.235 179.188C293.027 180.375 292.922 181.656 292.922 183.031V184.219C292.922 185.531 293.1 186.729 293.454 187.812C293.808 188.896 294.329 189.823 295.016 190.594C295.704 191.365 296.537 191.969 297.516 192.406C298.495 192.844 299.61 193.062 300.86 193.062C302.402 193.062 303.87 192.771 305.266 192.188C306.662 191.583 307.87 190.646 308.891 189.375L313.454 194.594C312.766 195.594 311.797 196.562 310.547 197.5C309.318 198.417 307.839 199.167 306.11 199.75C304.381 200.333 302.422 200.625 300.235 200.625ZM333.309 174.062V200H323.559V166.188H332.715L333.309 174.062ZM343.402 165.938L343.246 175.031C342.83 174.969 342.288 174.917 341.621 174.875C340.955 174.812 340.382 174.781 339.902 174.781C338.652 174.781 337.569 174.938 336.652 175.25C335.757 175.542 335.007 175.979 334.402 176.562C333.819 177.146 333.382 177.875 333.09 178.75C332.798 179.604 332.652 180.594 332.652 181.719L330.809 180.812C330.809 178.583 331.027 176.542 331.465 174.688C331.902 172.833 332.538 171.229 333.371 169.875C334.205 168.5 335.225 167.438 336.434 166.688C337.642 165.938 339.017 165.562 340.559 165.562C341.059 165.562 341.569 165.594 342.09 165.656C342.611 165.719 343.048 165.812 343.402 165.938Z" fill="#E2E2E2"/>
</g>
<g clip-path="url(#clip0_103_132)">
<g filter="url(#filter1_dddd_103_132)">
<rect x="174.391" y="-3.39375" width="23.537" height="178.041" transform="rotate(-20.6486 174.391 -3.39375)" fill="#E2E2E2"/>
</g>
<g filter="url(#filter2_dddd_103_132)">
<path d="M17.9062 1.75V70H2.625V1.75H17.9062ZM44.7656 30.5312V42.3438H13.6406V30.5312H44.7656ZM47.7656 1.75V13.6094H13.6406V1.75H47.7656ZM55.2188 1.75H81.4219C86.6406 1.75 91.1562 2.53125 94.9688 4.09375C98.8125 5.65625 101.766 7.96875 103.828 11.0312C105.891 14.0938 106.922 17.875 106.922 22.375C106.922 26.125 106.312 29.3125 105.094 31.9375C103.875 34.5625 102.156 36.7344 99.9375 38.4531C97.75 40.1719 95.1875 41.5625 92.25 42.625L87.2812 45.3438H64.9688L64.875 33.4844H81.4688C83.75 33.4844 85.6406 33.0781 87.1406 32.2656C88.6406 31.4531 89.7656 30.3125 90.5156 28.8438C91.2969 27.3438 91.6875 25.5938 91.6875 23.5938C91.6875 21.5312 91.2969 19.75 90.5156 18.25C89.7344 16.75 88.5781 15.6094 87.0469 14.8281C85.5469 14.0156 83.6719 13.6094 81.4219 13.6094H70.5V70H55.2188V1.75ZM93 70L77.6719 39.6719L93.7969 39.625L109.359 69.2969V70H93ZM174.188 34.375V37.4219C174.188 42.6094 173.469 47.2656 172.031 51.3906C170.625 55.5156 168.609 59.0312 165.984 61.9375C163.391 64.8438 160.297 67.0781 156.703 68.6406C153.141 70.1719 149.188 70.9375 144.844 70.9375C140.5 70.9375 136.531 70.1719 132.938 68.6406C129.344 67.0781 126.219 64.8438 123.562 61.9375C120.938 59.0312 118.906 55.5156 117.469 51.3906C116.031 47.2656 115.312 42.6094 115.312 37.4219V34.375C115.312 29.1875 116.031 24.5312 117.469 20.4062C118.906 16.25 120.922 12.7188 123.516 9.8125C126.141 6.90625 129.25 4.6875 132.844 3.15625C136.438 1.59375 140.406 0.8125 144.75 0.8125C149.094 0.8125 153.062 1.59375 156.656 3.15625C160.25 4.6875 163.344 6.90625 165.938 9.8125C168.562 12.7188 170.594 16.25 172.031 20.4062C173.469 24.5312 174.188 29.1875 174.188 34.375ZM158.766 37.4219V34.2812C158.766 30.8125 158.453 27.75 157.828 25.0938C157.203 22.4062 156.297 20.1562 155.109 18.3438C153.922 16.5312 152.453 15.1719 150.703 14.2656C148.953 13.3281 146.969 12.8594 144.75 12.8594C142.438 12.8594 140.422 13.3281 138.703 14.2656C136.984 15.1719 135.531 16.5312 134.344 18.3438C133.188 20.1562 132.297 22.4062 131.672 25.0938C131.078 27.75 130.781 30.8125 130.781 34.2812V37.4219C130.781 40.8594 131.078 43.9219 131.672 46.6094C132.297 49.2656 133.203 51.5156 134.391 53.3594C135.578 55.2031 137.031 56.5938 138.75 57.5312C140.5 58.4688 142.531 58.9375 144.844 58.9375C147.062 58.9375 149.031 58.4688 150.75 57.5312C152.5 56.5938 153.969 55.2031 155.156 53.3594C156.344 51.5156 157.234 49.2656 157.828 46.6094C158.453 43.9219 158.766 40.8594 158.766 37.4219Z" fill="#E2E2E2"/>
</g>
<g filter="url(#filter3_dddd_103_132)">
<path d="M261.406 1.75V70H246.172V1.75H261.406ZM282.172 1.75V13.6094H225.828V1.75H282.172Z" fill="#E2E2E2"/>
</g>
<g filter="url(#filter4_dddd_103_132)">
<path d="M193.031 134.188V146H156.703V134.188H193.031ZM161.906 77.75V146H146.625V77.75H161.906ZM188.344 105.219V116.656H156.703V105.219H188.344ZM193.078 77.75V89.6094H156.703V77.75H193.078Z" fill="#E2E2E2"/>
</g>
<g filter="url(#filter5_dddd_103_132)">
<path d="M291.234 146H276.234L276.328 134.188H291.234C294.641 134.188 297.516 133.406 299.859 131.844C302.203 130.25 303.984 127.906 305.203 124.812C306.422 121.688 307.031 117.891 307.031 113.422V110.281C307.031 106.906 306.688 103.938 306 101.375C305.312 98.7812 304.297 96.6094 302.953 94.8594C301.609 93.1094 299.938 91.7969 297.938 90.9219C295.969 90.0469 293.703 89.6094 291.141 89.6094H275.953V77.75H291.141C295.766 77.75 299.984 78.5312 303.797 80.0938C307.641 81.6562 310.953 83.8906 313.734 86.7969C316.547 89.7031 318.719 93.1406 320.25 97.1094C321.781 101.078 322.547 105.5 322.547 110.375V113.422C322.547 118.266 321.781 122.688 320.25 126.688C318.719 130.656 316.547 134.094 313.734 137C310.953 139.875 307.656 142.094 303.844 143.656C300.031 145.219 295.828 146 291.234 146ZM284.906 77.75V146H269.625V77.75H284.906Z" fill="#E2E2E2"/>
</g>
</g>
<defs>
<filter id="filter0_dddd_103_132" x="19.875" y="152" width="327.527" height="69" filterUnits="userSpaceOnUse" color-interpolation-filters="sRGB">
<feFlood flood-opacity="0" result="BackgroundImageFix"/>
<feColorMatrix in="SourceAlpha" type="matrix" values="0 0 0 0 0 0 0 0 0 0 0 0 0 0 0 0 0 0 127 0" result="hardAlpha"/>
<feOffset dy="4"/>
<feGaussianBlur stdDeviation="2"/>
<feComposite in2="hardAlpha" operator="out"/>
<feColorMatrix type="matrix" values="0 0 0 0 0 0 0 0 0 0 0 0 0 0 0 0 0 0 0.25 0"/>
<feBlend mode="normal" in2="BackgroundImageFix" result="effect1_dropShadow_103_132"/>
<feColorMatrix in="SourceAlpha" type="matrix" values="0 0 0 0 0 0 0 0 0 0 0 0 0 0 0 0 0 0 127 0" result="hardAlpha"/>
<feOffset dy="4"/>
<feGaussianBlur stdDeviation="2"/>
<feComposite in2="hardAlpha" operator="out"/>
<feColorMatrix type="matrix" values="0 0 0 0 0 0 0 0 0 0 0 0 0 0 0 0 0 0 0.25 0"/>
<feBlend mode="normal" in2="effect1_dropShadow_103_132" result="effect2_dropShadow_103_132"/>
<feColorMatrix in="SourceAlpha" type="matrix" values="0 0 0 0 0 0 0 0 0 0 0 0 0 0 0 0 0 0 127 0" result="hardAlpha"/>
<feOffset dy="4"/>
<feGaussianBlur stdDeviation="2"/>
<feComposite in2="hardAlpha" operator="out"/>
<feColorMatrix type="matrix" values="0 0 0 0 0 0 0 0 0 0 0 0 0 0 0 0 0 0 0.25 0"/>
<feBlend mode="normal" in2="effect2_dropShadow_103_132" result="effect3_dropShadow_103_132"/>
<feColorMatrix in="SourceAlpha" type="matrix" values="0 0 0 0 0 0 0 0 0 0 0 0 0 0 0 0 0 0 127 0" result="hardAlpha"/>
<feOffset dy="4"/>
<feGaussianBlur stdDeviation="2"/>
<feComposite in2="hardAlpha" operator="out"/>
<feColorMatrix type="matrix" values="0 0 0 0 0 0 0 0 0 0 0 0 0 0 0 0 0 0 0.25 0"/>
<feBlend mode="normal" in2="effect3_dropShadow_103_132" result="effect4_dropShadow_103_132"/>
<feBlend mode="normal" in="SourceGraphic" in2="effect4_dropShadow_103_132" result="shape"/>
</filter>
<filter id="filter1_dddd_103_132" x="170.391" y="-11.6937" width="92.8085" height="182.904" filterUnits="userSpaceOnUse" color-interpolation-filters="sRGB">
<feFlood flood-opacity="0" result="BackgroundImageFix"/>
<feColorMatrix in="SourceAlpha" type="matrix" values="0 0 0 0 0 0 0 0 0 0 0 0 0 0 0 0 0 0 127 0" result="hardAlpha"/>
<feOffset dy="4"/>
<feGaussianBlur stdDeviation="2"/>
<feComposite in2="hardAlpha" operator="out"/>
<feColorMatrix type="matrix" values="0 0 0 0 0 0 0 0 0 0 0 0 0 0 0 0 0 0 0.25 0"/>
<feBlend mode="normal" in2="BackgroundImageFix" result="effect1_dropShadow_103_132"/>
<feColorMatrix in="SourceAlpha" type="matrix" values="0 0 0 0 0 0 0 0 0 0 0 0 0 0 0 0 0 0 127 0" result="hardAlpha"/>
<feOffset dy="4"/>
<feGaussianBlur stdDeviation="2"/>
<feComposite in2="hardAlpha" operator="out"/>
<feColorMatrix type="matrix" values="0 0 0 0 0 0 0 0 0 0 0 0 0 0 0 0 0 0 0.25 0"/>
<feBlend mode="normal" in2="effect1_dropShadow_103_132" result="effect2_dropShadow_103_132"/>
<feColorMatrix in="SourceAlpha" type="matrix" values="0 0 0 0 0 0 0 0 0 0 0 0 0 0 0 0 0 0 127 0" result="hardAlpha"/>
<feOffset dy="4"/>
<feGaussianBlur stdDeviation="2"/>
<feComposite in2="hardAlpha" operator="out"/>
<feColorMatrix type="matrix" values="0 0 0 0 0 0 0 0 0 0 0 0 0 0 0 0 0 0 0.25 0"/>
<feBlend mode="normal" in2="effect2_dropShadow_103_132" result="effect3_dropShadow_103_132"/>
<feColorMatrix in="SourceAlpha" type="matrix" values="0 0 0 0 0 0 0 0 0 0 0 0 0 0 0 0 0 0 127 0" result="hardAlpha"/>
<feOffset dy="4"/>
<feGaussianBlur stdDeviation="2"/>
<feComposite in2="hardAlpha" operator="out"/>
<feColorMatrix type="matrix" values="0 0 0 0 0 0 0 0 0 0 0 0 0 0 0 0 0 0 0.25 0"/>
<feBlend mode="normal" in2="effect3_dropShadow_103_132" result="effect4_dropShadow_103_132"/>
<feBlend mode="normal" in="SourceGraphic" in2="effect4_dropShadow_103_132" result="shape"/>
</filter>
<filter id="filter2_dddd_103_132" x="-1.375" y="0.8125" width="179.562" height="78.125" filterUnits="userSpaceOnUse" color-interpolation-filters="sRGB">
<feFlood flood-opacity="0" result="BackgroundImageFix"/>
<feColorMatrix in="SourceAlpha" type="matrix" values="0 0 0 0 0 0 0 0 0 0 0 0 0 0 0 0 0 0 127 0" result="hardAlpha"/>
<feOffset dy="4"/>
<feGaussianBlur stdDeviation="2"/>
<feComposite in2="hardAlpha" operator="out"/>
<feColorMatrix type="matrix" values="0 0 0 0 0 0 0 0 0 0 0 0 0 0 0 0 0 0 0.25 0"/>
<feBlend mode="normal" in2="BackgroundImageFix" result="effect1_dropShadow_103_132"/>
<feColorMatrix in="SourceAlpha" type="matrix" values="0 0 0 0 0 0 0 0 0 0 0 0 0 0 0 0 0 0 127 0" result="hardAlpha"/>
<feOffset dy="4"/>
<feGaussianBlur stdDeviation="2"/>
<feComposite in2="hardAlpha" operator="out"/>
<feColorMatrix type="matrix" values="0 0 0 0 0 0 0 0 0 0 0 0 0 0 0 0 0 0 0.25 0"/>
<feBlend mode="normal" in2="effect1_dropShadow_103_132" result="effect2_dropShadow_103_132"/>
<feColorMatrix in="SourceAlpha" type="matrix" values="0 0 0 0 0 0 0 0 0 0 0 0 0 0 0 0 0 0 127 0" result="hardAlpha"/>
<feOffset dy="4"/>
<feGaussianBlur stdDeviation="2"/>
<feComposite in2="hardAlpha" operator="out"/>
<feColorMatrix type="matrix" values="0 0 0 0 0 0 0 0 0 0 0 0 0 0 0 0 0 0 0.25 0"/>
<feBlend mode="normal" in2="effect2_dropShadow_103_132" result="effect3_dropShadow_103_132"/>
<feColorMatrix in="SourceAlpha" type="matrix" values="0 0 0 0 0 0 0 0 0 0 0 0 0 0 0 0 0 0 127 0" result="hardAlpha"/>
<feOffset dy="4"/>
<feGaussianBlur stdDeviation="2"/>
<feComposite in2="hardAlpha" operator="out"/>
<feColorMatrix type="matrix" values="0 0 0 0 0 0 0 0 0 0 0 0 0 0 0 0 0 0 0.25 0"/>
<feBlend mode="normal" in2="effect3_dropShadow_103_132" result="effect4_dropShadow_103_132"/>
<feBlend mode="normal" in="SourceGraphic" in2="effect4_dropShadow_103_132" result="shape"/>
</filter>
<filter id="filter3_dddd_103_132" x="221.828" y="1.75" width="64.3438" height="76.25" filterUnits="userSpaceOnUse" color-interpolation-filters="sRGB">
<feFlood flood-opacity="0" result="BackgroundImageFix"/>
<feColorMatrix in="SourceAlpha" type="matrix" values="0 0 0 0 0 0 0 0 0 0 0 0 0 0 0 0 0 0 127 0" result="hardAlpha"/>
<feOffset dy="4"/>
<feGaussianBlur stdDeviation="2"/>
<feComposite in2="hardAlpha" operator="out"/>
<feColorMatrix type="matrix" values="0 0 0 0 0 0 0 0 0 0 0 0 0 0 0 0 0 0 0.25 0"/>
<feBlend mode="normal" in2="BackgroundImageFix" result="effect1_dropShadow_103_132"/>
<feColorMatrix in="SourceAlpha" type="matrix" values="0 0 0 0 0 0 0 0 0 0 0 0 0 0 0 0 0 0 127 0" result="hardAlpha"/>
<feOffset dy="4"/>
<feGaussianBlur stdDeviation="2"/>
<feComposite in2="hardAlpha" operator="out"/>
<feColorMatrix type="matrix" values="0 0 0 0 0 0 0 0 0 0 0 0 0 0 0 0 0 0 0.25 0"/>
<feBlend mode="normal" in2="effect1_dropShadow_103_132" result="effect2_dropShadow_103_132"/>
<feColorMatrix in="SourceAlpha" type="matrix" values="0 0 0 0 0 0 0 0 0 0 0 0 0 0 0 0 0 0 127 0" result="hardAlpha"/>
<feOffset dy="4"/>
<feGaussianBlur stdDeviation="2"/>
<feComposite in2="hardAlpha" operator="out"/>
<feColorMatrix type="matrix" values="0 0 0 0 0 0 0 0 0 0 0 0 0 0 0 0 0 0 0.25 0"/>
<feBlend mode="normal" in2="effect2_dropShadow_103_132" result="effect3_dropShadow_103_132"/>
<feColorMatrix in="SourceAlpha" type="matrix" values="0 0 0 0 0 0 0 0 0 0 0 0 0 0 0 0 0 0 127 0" result="hardAlpha"/>
<feOffset dy="4"/>
<feGaussianBlur stdDeviation="2"/>
<feComposite in2="hardAlpha" operator="out"/>
<feColorMatrix type="matrix" values="0 0 0 0 0 0 0 0 0 0 0 0 0 0 0 0 0 0 0.25 0"/>
<feBlend mode="normal" in2="effect3_dropShadow_103_132" result="effect4_dropShadow_103_132"/>
<feBlend mode="normal" in="SourceGraphic" in2="effect4_dropShadow_103_132" result="shape"/>
</filter>
<filter id="filter4_dddd_103_132" x="142.625" y="77.75" width="54.4531" height="76.25" filterUnits="userSpaceOnUse" color-interpolation-filters="sRGB">
<feFlood flood-opacity="0" result="BackgroundImageFix"/>
<feColorMatrix in="SourceAlpha" type="matrix" values="0 0 0 0 0 0 0 0 0 0 0 0 0 0 0 0 0 0 127 0" result="hardAlpha"/>
<feOffset dy="4"/>
<feGaussianBlur stdDeviation="2"/>
<feComposite in2="hardAlpha" operator="out"/>
<feColorMatrix type="matrix" values="0 0 0 0 0 0 0 0 0 0 0 0 0 0 0 0 0 0 0.25 0"/>
<feBlend mode="normal" in2="BackgroundImageFix" result="effect1_dropShadow_103_132"/>
<feColorMatrix in="SourceAlpha" type="matrix" values="0 0 0 0 0 0 0 0 0 0 0 0 0 0 0 0 0 0 127 0" result="hardAlpha"/>
<feOffset dy="4"/>
<feGaussianBlur stdDeviation="2"/>
<feComposite in2="hardAlpha" operator="out"/>
<feColorMatrix type="matrix" values="0 0 0 0 0 0 0 0 0 0 0 0 0 0 0 0 0 0 0.25 0"/>
<feBlend mode="normal" in2="effect1_dropShadow_103_132" result="effect2_dropShadow_103_132"/>
<feColorMatrix in="SourceAlpha" type="matrix" values="0 0 0 0 0 0 0 0 0 0 0 0 0 0 0 0 0 0 127 0" result="hardAlpha"/>
<feOffset dy="4"/>
<feGaussianBlur stdDeviation="2"/>
<feComposite in2="hardAlpha" operator="out"/>
<feColorMatrix type="matrix" values="0 0 0 0 0 0 0 0 0 0 0 0 0 0 0 0 0 0 0.25 0"/>
<feBlend mode="normal" in2="effect2_dropShadow_103_132" result="effect3_dropShadow_103_132"/>
<feColorMatrix in="SourceAlpha" type="matrix" values="0 0 0 0 0 0 0 0 0 0 0 0 0 0 0 0 0 0 127 0" result="hardAlpha"/>
<feOffset dy="4"/>
<feGaussianBlur stdDeviation="2"/>
<feComposite in2="hardAlpha" operator="out"/>
<feColorMatrix type="matrix" values="0 0 0 0 0 0 0 0 0 0 0 0 0 0 0 0 0 0 0.25 0"/>
<feBlend mode="normal" in2="effect3_dropShadow_103_132" result="effect4_dropShadow_103_132"/>
<feBlend mode="normal" in="SourceGraphic" in2="effect4_dropShadow_103_132" result="shape"/>
</filter>
<filter id="filter5_dddd_103_132" x="265.625" y="77.75" width="60.9219" height="76.25" filterUnits="userSpaceOnUse" color-interpolation-filters="sRGB">
<feFlood flood-opacity="0" result="BackgroundImageFix"/>
<feColorMatrix in="SourceAlpha" type="matrix" values="0 0 0 0 0 0 0 0 0 0 0 0 0 0 0 0 0 0 127 0" result="hardAlpha"/>
<feOffset dy="4"/>
<feGaussianBlur stdDeviation="2"/>
<feComposite in2="hardAlpha" operator="out"/>
<feColorMatrix type="matrix" values="0 0 0 0 0 0 0 0 0 0 0 0 0 0 0 0 0 0 0.25 0"/>
<feBlend mode="normal" in2="BackgroundImageFix" result="effect1_dropShadow_103_132"/>
<feColorMatrix in="SourceAlpha" type="matrix" values="0 0 0 0 0 0 0 0 0 0 0 0 0 0 0 0 0 0 127 0" result="hardAlpha"/>
<feOffset dy="4"/>
<feGaussianBlur stdDeviation="2"/>
<feComposite in2="hardAlpha" operator="out"/>
<feColorMatrix type="matrix" values="0 0 0 0 0 0 0 0 0 0 0 0 0 0 0 0 0 0 0.25 0"/>
<feBlend mode="normal" in2="effect1_dropShadow_103_132" result="effect2_dropShadow_103_132"/>
<feColorMatrix in="SourceAlpha" type="matrix" values="0 0 0 0 0 0 0 0 0 0 0 0 0 0 0 0 0 0 127 0" result="hardAlpha"/>
<feOffset dy="4"/>
<feGaussianBlur stdDeviation="2"/>
<feComposite in2="hardAlpha" operator="out"/>
<feColorMatrix type="matrix" values="0 0 0 0 0 0 0 0 0 0 0 0 0 0 0 0 0 0 0.25 0"/>
<feBlend mode="normal" in2="effect2_dropShadow_103_132" result="effect3_dropShadow_103_132"/>
<feColorMatrix in="SourceAlpha" type="matrix" values="0 0 0 0 0 0 0 0 0 0 0 0 0 0 0 0 0 0 127 0" result="hardAlpha"/>
<feOffset dy="4"/>
<feGaussianBlur stdDeviation="2"/>
<feComposite in2="hardAlpha" operator="out"/>
<feColorMatrix type="matrix" values="0 0 0 0 0 0 0 0 0 0 0 0 0 0 0 0 0 0 0.25 0"/>
<feBlend mode="normal" in2="effect3_dropShadow_103_132" result="effect4_dropShadow_103_132"/>
<feBlend mode="normal" in="SourceGraphic" in2="effect4_dropShadow_103_132" result="shape"/>
</filter>
<clipPath id="clip0_103_132">
<rect width="350" height="152" fill="white"/>
</clipPath>
</defs>
</svg>
